<?xml version="1.0" encoding="UTF-8" standalone="no"?>
<!-- Created with Inkscape (http://www.inkscape.org/) -->

<svg
   xmlns:dc="http://purl.org/dc/elements/1.1/"
   xmlns:cc="http://creativecommons.org/ns#"
   xmlns:rdf="http://www.w3.org/1999/02/22-rdf-syntax-ns#"
   xmlns:svg="http://www.w3.org/2000/svg"
   xmlns="http://www.w3.org/2000/svg"
   xmlns:sodipodi="http://sodipodi.sourceforge.net/DTD/sodipodi-0.dtd"
   xmlns:inkscape="http://www.inkscape.org/namespaces/inkscape"
   width="517.53857"
   height="303.78696"
   id="svg16972"
   version="1.1"
   inkscape:version="0.91 r13725"
   viewBox="0 0 517.53857 303.78696"
   sodipodi:docname="SWIFT_Logo.svg"
   inkscape:export-filename="C:\Users\Mitchell\PycharmProjects\CPS_Static_Site\static\assets\images\SWIFT_Logo.png"
   inkscape:export-xdpi="90"
   inkscape:export-ydpi="90">
  <defs
     id="defs16974" />
  <sodipodi:namedview
     id="base"
     pagecolor="#ffffff"
     bordercolor="#666666"
     borderopacity="1.0"
     inkscape:pageopacity="0.0"
     inkscape:pageshadow="2"
     inkscape:zoom="0.98994949"
     inkscape:cx="57.372584"
     inkscape:cy="-3.0730555"
     inkscape:document-units="px"
     inkscape:current-layer="g4665"
     showgrid="false"
     inkscape:window-width="1920"
     inkscape:window-height="1017"
     inkscape:window-x="-8"
     inkscape:window-y="-8"
     inkscape:window-maximized="1"
     fit-margin-top="0"
     fit-margin-left="0"
     fit-margin-right="0"
     fit-margin-bottom="0" />
  <metadata
     id="metadata16977">
    <rdf:RDF>
      <cc:Work
         rdf:about="">
        <dc:format>image/svg+xml</dc:format>
        <dc:type
           rdf:resource="http://purl.org/dc/dcmitype/StillImage" />
        <dc:title />
      </cc:Work>
    </rdf:RDF>
  </metadata>
  <g
     inkscape:label="Layer 1"
     inkscape:groupmode="layer"
     id="layer1"
     transform="translate(-128.12841,-57.36203)">
    <g
       transform="matrix(4.5089558,0,0,4.5089558,47.378102,-5090.7865)"
       style="display:inline;fill:#000000"
       id="g4663">
      <g
         id="g4665"
         style="fill:#000000">
        <path
           d="m 66.712097,1141.7607 c -7.368746,8.18 -7.68461,13.3638 0,22.1781 -10.585676,-2.6671 -9.921265,-19.5496 0,-22.1781 z"
           id="path4667"
           inkscape:connector-curvature="0"
           style="fill:#000000"
           sodipodi:nodetypes="ccc" />
        <path
           sodipodi:nodetypes="ccc"
           style="fill:#000000"
           inkscape:connector-curvature="0"
           id="path17305"
           d="m 88.738631,1141.7607 c 7.368746,8.18 7.68461,13.3638 0,22.1781 10.585676,-2.6671 9.921265,-19.5496 0,-22.1781 z" />
      </g>
      <g
         id="g4713"
         style="fill:#000000">
        <path
           d="m 28.002,1173.468 c -3.220202,0.053 -5.597142,-0.2316 -6.033,2.603 l 17.22697,0 c -0.0086,6.3338 -0.763041,9.6892 -5.53497,10.41 -2.938056,0.4438 -4.630359,0.207 -7.767,0.207 l -7.974,0 0,-3.966 11.691,0 c 2.537567,0.08 5.659624,0 5.494,-2.728 l -17.186,0 c 0.094,-2.117 -0.231,-4.356 0.33,-5.948 1.597801,-4.616 6.907608,-4.5433 10.493,-4.545 l 10.45397,-0.01 0,3.9721 -11.19397,0 z"
           id="path4715"
           inkscape:connector-curvature="0"
           style="fill:#000000"
           sodipodi:nodetypes="cccssccccccccccc" />
      </g>
      <g
         id="g4717"
         style="fill:#000000">
        <path
           d="m 42.214,1186.688 0,-17.1969 4.213,0 0.041,13.1479 12.684,0.083 c 2.929937,0.019 5.108,-0.09 5.908,-2.272 0.501,-1.37 0.33,-3.346 0.33,-5.288 l 0,-5.6709 4.215,0 0,7.0329 c 0,1.303 0.065,2.476 -0.084,3.513 -0.446,3.13 -2.551,5.205 -5.204,6.114 -1.924,0.66 -4.343,0.537 -7.024,0.537 z"
           id="path4719"
           inkscape:connector-curvature="0"
           style="fill:#000000"
           sodipodi:nodetypes="ccccscsccsccsc" />
      </g>
      <g
         id="g4721"
         style="fill:#000000">
        <path
           d="m 57.666,1180.531 -4.175,-0.04 0.042,-10.9999 4.149009,0 z"
           id="path4723"
           inkscape:connector-curvature="0"
           style="fill:#000000"
           sodipodi:nodetypes="ccccc" />
      </g>
      <g
         id="g4725"
         style="fill:#000000">
        <path
           d="m 107.61869,1173.4681 -13.10069,0 c -1.329681,0.2099 -3.230473,0.5716 -3.512,2.6429 l 15.245,0 0,3.8841 -15.576,0 -0.042,6.7359 -4.173,0 0,-5.95 c 0,-1.988 -0.15,-4.069 0.331,-5.577 1.265126,-3.4405 4.027506,-5.3835 7.313,-5.6599 l 13.51,0 z"
           id="path4727"
           inkscape:connector-curvature="0"
           style="fill:#000000"
           sodipodi:nodetypes="ccccccccscccc" />
      </g>
      <g
         id="g4729"
         style="fill:#000000">
        <path
           d="m 132.68901,1173.4594 -8.06195,-0.024 0,13.2539 -4.86806,0 0,-13.1886 -8.718,-0.033 0,-3.9658 21.64801,0 z"
           id="path4731"
           inkscape:connector-curvature="0"
           style="fill:#000000"
           sodipodi:nodetypes="ccccccccc" />
      </g>
      <g
         id="g4733"
         style="fill:#000000" />
      <g
         id="g4737"
         style="fill:#000000" />
      <g
         id="g4741"
         style="fill:#000000" />
      <g
         id="g4753"
         style="fill:#000000" />
      <g
         id="g4757"
         style="fill:#000000" />
      <g
         id="g4761"
         style="fill:#000000" />
      <g
         id="g4765"
         style="fill:#000000">
        <path
           d="m 24.654,1206.064 c -0.165,0 -0.33,0 -0.496,0 -0.198,-0.104 -0.103,-0.298 -0.371,-0.412 -0.366,-0.158 -0.918,0 -0.908,0.33 0.014,0.564 1.409,0.337 1.735,0.785 1.046,1.438 -2.399,2.287 -2.396,0.577 0.098,-0.095 0.369,-0.014 0.537,-0.039 0.221,0.11 0.154,0.366 0.454,0.452 0.378,0.11 0.938,-0.037 0.949,-0.371 0.022,-0.636 -1.6,-0.455 -1.816,-0.99 -0.617,-1.528 2.478,-1.792 2.312,-0.332 z"
           id="path4767"
           inkscape:connector-curvature="0"
           style="fill:#000000" />
      </g>
      <g
         id="g4769"
         style="fill:#000000">
        <path
           d="m 30.562,1205.156 c 0.194,0 0.387,0 0.58,0 0,1.004 0,2.01 0,3.016 -0.193,0 -0.386,0 -0.58,0 0,-0.068 0,-0.139 0,-0.207 -0.197,0.213 -0.313,0.318 -0.577,0.331 -1.278,0.059 -1.381,-2.581 0.083,-2.396 0.24,0.03 0.308,0.138 0.494,0.29 0,-0.345 0,-0.69 0,-1.034 z m -0.33,2.602 c 0.479,-0.134 0.457,-1.546 -0.289,-1.322 -0.612,0.184 -0.424,1.523 0.289,1.322 z"
           id="path4771"
           inkscape:connector-curvature="0"
           style="fill:#000000" />
      </g>
      <g
         id="g4773"
         style="fill:#000000">
        <path
           d="m 41.264,1205.156 c 0.22,0 0.44,0 0.661,0 0.155,0.712 0.288,1.446 0.454,2.149 0.18,-0.688 0.321,-1.415 0.454,-2.149 0.207,0 0.413,0 0.62,0 0.166,0.701 0.336,1.398 0.454,2.149 0.259,-0.624 0.296,-1.469 0.495,-2.149 0.221,0 0.441,0 0.662,0 -0.276,1.004 -0.567,1.995 -0.826,3.016 -0.193,0 -0.387,0 -0.578,0 -0.146,-0.751 -0.343,-1.448 -0.456,-2.23 -0.283,0.638 -0.323,1.52 -0.536,2.23 -0.192,0 -0.386,0 -0.579,0 -0.25,-1.031 -0.57,-1.991 -0.825,-3.016 z"
           id="path4775"
           inkscape:connector-curvature="0"
           style="fill:#000000" />
      </g>
      <g
         id="g4777"
         style="fill:#000000">
        <path
           d="m 45.436,1205.156 c 0.193,0 0.387,0 0.579,0 0,0.178 0,0.357 0,0.535 -0.192,0 -0.386,0 -0.579,0 0,-0.177 0,-0.357 0,-0.535 z"
           id="path4779"
           inkscape:connector-curvature="0"
           style="fill:#000000" />
      </g>
      <g
         id="g4781"
         style="fill:#000000">
        <path
           d="m 48.575,1205.156 c 10e-4,0.344 0,0.688 0,1.033 0.108,-0.044 0.273,-0.257 0.455,-0.29 1.176,-0.221 0.887,1.206 0.909,2.272 -0.193,0 -0.386,0 -0.578,0 -0.104,-0.569 0.22,-1.623 -0.207,-1.775 -0.752,-0.273 -0.573,1.055 -0.579,1.775 -0.191,0 -0.385,0 -0.578,0 0,-1.006 0,-2.012 0,-3.016 0.193,10e-4 0.387,10e-4 0.578,10e-4 z"
           id="path4783"
           inkscape:connector-curvature="0"
           style="fill:#000000" />
      </g>
      <g
         id="g4785"
         style="fill:#000000">
        <path
           d="m 58.326,1205.156 c 0,1.004 0,2.01 0,3.016 -0.207,0 -0.414,0 -0.621,0 0,-1.006 0,-2.012 0,-3.016 0.207,0 0.414,0 0.621,0 z"
           id="path4787"
           inkscape:connector-curvature="0"
           style="fill:#000000" />
      </g>
      <g
         id="g4789"
         style="fill:#000000">
        <path
           d="m 74.15,1205.156 c 0.191,0 0.384,0 0.577,0 0,0.178 0,0.357 0,0.535 -0.193,0 -0.386,0 -0.577,0 0,-0.177 0,-0.357 0,-0.535 z"
           id="path4791"
           inkscape:connector-curvature="0"
           style="fill:#000000" />
      </g>
      <g
         id="g4793"
         style="fill:#000000">
        <path
           d="m 80.967,1205.156 c 0,0.344 0,0.688 0,1.033 0.107,-0.044 0.273,-0.257 0.454,-0.29 1.176,-0.221 0.886,1.206 0.909,2.272 -0.193,0 -0.387,0 -0.58,0 -0.103,-0.569 0.222,-1.623 -0.206,-1.775 -0.752,-0.273 -0.573,1.055 -0.577,1.775 -0.193,0 -0.386,0 -0.578,0 0,-1.006 0,-2.012 0,-3.016 0.192,10e-4 0.384,10e-4 0.578,10e-4 z"
           id="path4795"
           inkscape:connector-curvature="0"
           style="fill:#000000" />
      </g>
      <g
         id="g4797"
         style="fill:#000000">
        <path
           d="m 86.461,1205.156 c 0.703,0 1.405,0 2.106,0 0,0.178 0,0.357 0,0.535 -0.481,0 -0.964,0 -1.445,0 -0.096,0.141 -0.015,0.455 -0.041,0.663 0.428,0 0.854,0 1.281,0 0,0.178 0,0.356 0,0.536 -0.428,0 -0.854,0 -1.281,0 0,0.428 0,0.854 0,1.281 -0.207,0 -0.413,0 -0.62,0 0,-1.005 0,-2.011 0,-3.015 z"
           id="path4799"
           inkscape:connector-curvature="0"
           style="fill:#000000" />
      </g>
      <g
         id="g4801"
         style="fill:#000000">
        <path
           d="m 104.145,1205.156 c 0,0.151 0,0.303 0,0.453 -0.097,0 -0.193,0 -0.291,0 -0.013,0.098 -0.064,0.156 -0.039,0.29 0.008,0.129 0.204,0.069 0.33,0.083 0,0.123 0,0.247 0,0.372 -0.111,0 -0.222,0 -0.33,0 0,0.605 0,1.211 0,1.817 -0.194,0 -0.388,0 -0.58,0 0,-0.593 0,-1.185 0,-1.775 -0.018,-0.094 -0.203,-0.019 -0.289,-0.042 0,-0.125 0,-0.249 0,-0.372 0.097,0 0.193,0 0.289,0 -0.106,-0.683 0.242,-0.916 0.91,-0.826 z"
           id="path4803"
           inkscape:connector-curvature="0"
           style="fill:#000000" />
      </g>
      <g
         id="g4805"
         style="fill:#000000">
        <path
           d="m 105.548,1205.156 c 0.799,0 1.598,0 2.396,0 0,0.178 0,0.357 0,0.535 -0.275,0 -0.55,0 -0.825,0 -0.098,0.744 -0.016,1.667 -0.041,2.48 -0.207,0 -0.414,0 -0.621,0 0,-0.827 0,-1.653 0,-2.48 -0.303,0 -0.605,0 -0.909,0 0,-0.177 0,-0.357 0,-0.535 z"
           id="path4807"
           inkscape:connector-curvature="0"
           style="fill:#000000" />
      </g>
      <g
         id="g4809"
         style="fill:#000000">
        <path
           d="m 113.646,1205.156 c 0,0.344 0,0.688 0,1.033 0.107,-0.044 0.272,-0.257 0.453,-0.29 1.178,-0.221 0.886,1.206 0.91,2.272 -0.192,0 -0.386,0 -0.579,0 -0.104,-0.569 0.221,-1.623 -0.206,-1.775 -0.753,-0.273 -0.574,1.055 -0.578,1.775 -0.193,0 -0.386,0 -0.579,0 0,-1.006 0,-2.012 0,-3.016 0.194,10e-4 0.386,10e-4 0.579,10e-4 z"
           id="path4811"
           inkscape:connector-curvature="0"
           style="fill:#000000" />
      </g>
      <g
         id="g4813"
         style="fill:#000000">
        <path
           d="m 121.165,1205.156 c 0,1.004 0,2.01 0,3.016 -0.192,0 -0.386,0 -0.578,0 0,-1.006 0,-2.012 0,-3.016 0.192,0 0.386,0 0.578,0 z"
           id="path4815"
           inkscape:connector-curvature="0"
           style="fill:#000000" />
      </g>
      <g
         id="g4817"
         style="fill:#000000">
        <path
           d="m 25.274,1205.403 c 0.193,0 0.386,0 0.579,0 0,0.166 0,0.331 0,0.496 0.005,0.119 0.172,0.076 0.288,0.083 0,0.123 0,0.247 0,0.372 -0.097,0 -0.192,0 -0.288,0 0.115,0.475 -0.275,1.459 0.288,1.486 0,0.138 0,0.275 0,0.414 -1.103,0.346 -0.859,-0.977 -0.867,-1.858 -0.006,-0.093 -0.176,-0.019 -0.248,-0.042 0,-0.125 0,-0.249 0,-0.372 0.083,0 0.165,0 0.248,0 0,-0.193 0,-0.385 0,-0.579 z"
           id="path4819"
           inkscape:connector-curvature="0"
           style="fill:#000000" />
      </g>
      <g
         id="g4821"
         style="fill:#000000">
        <path
           d="m 36.677,1205.403 c 0.194,0 0.386,0 0.579,0 0,0.166 0,0.331 0,0.496 0.006,0.119 0.172,0.076 0.288,0.083 0,0.123 0,0.247 0,0.372 -0.096,0 -0.191,0 -0.288,0 0.116,0.475 -0.275,1.459 0.288,1.486 0,0.138 0,0.275 0,0.414 -1.102,0.346 -0.858,-0.977 -0.867,-1.858 -0.005,-0.093 -0.175,-0.019 -0.248,-0.042 0,-0.125 0,-0.249 0,-0.372 0.083,0 0.166,0 0.248,0 0,-0.193 0,-0.385 0,-0.579 z"
           id="path4823"
           inkscape:connector-curvature="0"
           style="fill:#000000" />
      </g>
      <g
         id="g4825"
         style="fill:#000000">
        <path
           d="m 46.675,1205.403 c 0.193,0 0.387,0 0.578,0 0,0.166 0,0.331 0,0.496 0.007,0.119 0.174,0.076 0.291,0.083 0,0.123 0,0.247 0,0.372 -0.098,0 -0.194,0 -0.291,0 0.117,0.475 -0.274,1.459 0.291,1.486 0,0.138 0,0.275 0,0.414 -1.104,0.346 -0.861,-0.977 -0.869,-1.858 -0.005,-0.093 -0.176,-0.019 -0.247,-0.042 0,-0.125 0,-0.249 0,-0.372 0.082,0 0.165,0 0.247,0 0,-0.193 0,-0.385 0,-0.579 z"
           id="path4827"
           inkscape:connector-curvature="0"
           style="fill:#000000" />
      </g>
      <g
         id="g4829"
         style="fill:#000000">
        <path
           d="m 61.549,1205.403 c 0.192,0 0.385,0 0.577,0 0,0.166 0,0.331 0,0.496 0.008,0.119 0.173,0.076 0.29,0.083 0,0.123 0,0.247 0,0.372 -0.096,0 -0.193,0 -0.29,0 0.117,0.475 -0.275,1.459 0.29,1.486 0,0.138 0,0.275 0,0.414 -1.102,0.346 -0.86,-0.977 -0.867,-1.858 -0.006,-0.093 -0.175,-0.019 -0.249,-0.042 0,-0.125 0,-0.249 0,-0.372 0.083,0 0.166,0 0.249,0 0,-0.193 0,-0.385 0,-0.579 z"
           id="path4831"
           inkscape:connector-curvature="0"
           style="fill:#000000" />
      </g>
      <g
         id="g4833"
         style="fill:#000000">
        <path
           d="m 71.67,1205.403 c 0.193,0 0.386,0 0.579,0 0,0.166 0,0.331 0,0.496 0.006,0.119 0.172,0.076 0.289,0.083 0,0.123 0,0.247 0,0.372 -0.096,0 -0.192,0 -0.289,0 0.116,0.475 -0.274,1.459 0.289,1.486 0,0.138 0,0.275 0,0.414 -1.102,0.346 -0.86,-0.977 -0.868,-1.858 -0.005,-0.093 -0.175,-0.019 -0.247,-0.042 0,-0.125 0,-0.249 0,-0.372 0.081,0 0.165,0 0.247,0 0,-0.193 0,-0.385 0,-0.579 z"
           id="path4835"
           inkscape:connector-curvature="0"
           style="fill:#000000" />
      </g>
      <g
         id="g4837"
         style="fill:#000000">
        <path
           d="m 79.066,1205.403 c 0.192,0 0.385,0 0.578,0 0,0.166 0,0.331 0,0.496 0.005,0.119 0.172,0.076 0.29,0.083 0,0.123 0,0.247 0,0.372 -0.097,0 -0.194,0 -0.29,0 0.117,0.475 -0.275,1.459 0.29,1.486 0,0.138 0,0.275 0,0.414 -1.104,0.346 -0.861,-0.977 -0.868,-1.858 -0.005,-0.093 -0.176,-0.019 -0.248,-0.042 0,-0.125 0,-0.249 0,-0.372 0.082,0 0.165,0 0.248,0 0,-0.193 0,-0.385 0,-0.579 z"
           id="path4839"
           inkscape:connector-curvature="0"
           style="fill:#000000" />
      </g>
      <g
         id="g4841"
         style="fill:#000000">
        <path
           d="m 91.626,1205.403 c 0.192,0 0.386,0 0.578,0 0,0.166 0,0.331 0,0.496 0.005,0.119 0.171,0.076 0.288,0.083 0,0.123 0,0.247 0,0.372 -0.096,0 -0.192,0 -0.288,0 0.116,0.475 -0.274,1.459 0.288,1.486 0,0.138 0,0.275 0,0.414 -1.102,0.346 -0.859,-0.977 -0.866,-1.858 -0.006,-0.093 -0.176,-0.019 -0.249,-0.042 0,-0.125 0,-0.249 0,-0.372 0.084,0 0.166,0 0.249,0 0,-0.193 0,-0.385 0,-0.579 z"
           id="path4843"
           inkscape:connector-curvature="0"
           style="fill:#000000" />
      </g>
      <g
         id="g4845"
         style="fill:#000000">
        <path
           d="m 33.621,1207.222 c -0.497,0 -0.993,0 -1.488,0 0.038,0.394 0.146,0.59 0.413,0.619 0.313,0.035 0.634,-0.426 1.075,-0.247 -0.337,1.005 -1.898,0.826 -2.066,-0.166 -0.138,-0.797 0.344,-1.699 1.28,-1.528 0.492,0.09 0.833,0.564 0.786,1.322 z m -1.447,-0.372 c 0.275,0 0.551,0 0.826,0 0.136,-0.668 -0.956,-0.645 -0.826,0 z"
           id="path4847"
           inkscape:connector-curvature="0"
           style="fill:#000000" />
      </g>
      <g
         id="g4849"
         style="fill:#000000">
        <path
           d="m 36.058,1208.172 c -0.192,0 -0.387,0 -0.579,0 -0.048,-0.57 0.118,-1.356 -0.123,-1.736 -0.964,-0.312 -0.659,0.991 -0.702,1.736 -0.193,0 -0.386,0 -0.579,0 0,-0.744 0,-1.487 0,-2.23 0.193,0 0.386,0 0.579,0 0,0.082 0,0.164 0,0.248 0.286,-0.352 1.235,-0.482 1.404,0.207 0.127,0.516 -0.093,1.125 0,1.775 z"
           id="path4851"
           inkscape:connector-curvature="0"
           style="fill:#000000" />
      </g>
      <g
         id="g4853"
         style="fill:#000000">
        <path
           d="m 39.817,1206.643 c -0.165,0 -0.331,0 -0.496,0 -0.092,-0.241 -0.648,-0.455 -0.826,-0.124 0.263,0.445 1.03,0.237 1.28,0.621 0.768,1.181 -1.943,1.714 -1.94,0.412 0.642,-0.147 1.054,0.687 1.445,0.042 -0.309,-0.434 -1.212,-0.236 -1.363,-0.744 -0.358,-1.2 1.923,-1.316 1.9,-0.207 z"
           id="path4855"
           inkscape:connector-curvature="0"
           style="fill:#000000" />
      </g>
      <g
         id="g4857"
         style="fill:#000000">
        <path
           d="m 53.575,1208.172 c -0.254,-0.049 -0.751,0.144 -0.702,-0.207 -0.396,0.549 -1.561,0.359 -1.363,-0.578 0.134,-0.641 1.037,-0.332 1.363,-0.786 0.009,-0.255 -0.291,-0.203 -0.537,-0.204 -0.16,0.018 -0.173,0.184 -0.249,0.288 -0.175,-0.017 -0.426,0.04 -0.536,-0.042 -0.063,-0.914 1.687,-1.035 1.9,-0.288 0.167,0.582 -0.203,1.309 0.124,1.817 z m -1.488,-0.702 c -0.085,0.53 0.984,0.407 0.786,-0.289 -0.228,0.011 -0.744,0.032 -0.786,0.289 z"
           id="path4859"
           inkscape:connector-curvature="0"
           style="fill:#000000" />
      </g>
      <g
         id="g4861"
         style="fill:#000000">
        <path
           d="m 55.971,1208.172 c -0.191,0 -0.385,0 -0.578,0 -0.049,-0.57 0.117,-1.356 -0.124,-1.736 -0.964,-0.312 -0.657,0.991 -0.702,1.736 -0.193,0 -0.386,0 -0.577,0 0,-0.744 0,-1.487 0,-2.23 0.191,0 0.384,0 0.577,0 0,0.082 0,0.164 0,0.248 0.287,-0.352 1.233,-0.482 1.404,0.207 0.129,0.516 -0.093,1.125 0,1.775 z"
           id="path4863"
           inkscape:connector-curvature="0"
           style="fill:#000000" />
      </g>
      <g
         id="g4865"
         style="fill:#000000">
        <path
           d="m 60.929,1208.172 c -0.193,0 -0.386,0 -0.578,0 -0.048,-0.57 0.118,-1.356 -0.124,-1.736 -0.964,-0.312 -0.658,0.991 -0.701,1.736 -0.193,0 -0.387,0 -0.58,0 0,-0.744 0,-1.487 0,-2.23 0.193,0 0.387,0 0.58,0 0,0.082 0,0.164 0,0.248 0.285,-0.352 1.233,-0.482 1.403,0.207 0.128,0.516 -0.093,1.125 0,1.775 z"
           id="path4867"
           inkscape:connector-curvature="0"
           style="fill:#000000" />
      </g>
      <g
         id="g4869"
         style="fill:#000000">
        <path
           d="m 64.813,1207.222 c -0.495,0 -0.992,0 -1.488,0 0.039,0.394 0.146,0.59 0.414,0.619 0.313,0.035 0.633,-0.426 1.074,-0.247 -0.336,1.005 -1.897,0.826 -2.066,-0.166 -0.135,-0.797 0.347,-1.699 1.282,-1.528 0.491,0.09 0.831,0.564 0.784,1.322 z m -1.447,-0.372 c 0.275,0 0.551,0 0.826,0 0.137,-0.668 -0.956,-0.645 -0.826,0 z"
           id="path4871"
           inkscape:connector-curvature="0"
           style="fill:#000000" />
      </g>
      <g
         id="g4873"
         style="fill:#000000">
        <path
           d="m 66.548,1205.899 c 0,0.18 0,0.358 0,0.536 -0.991,-0.178 -0.639,0.988 -0.703,1.736 -0.192,0 -0.385,0 -0.578,0 0,-0.744 0,-1.487 0,-2.23 0.193,0 0.386,0 0.578,0 0,0.096 0,0.192 0,0.288 0.137,-0.041 0.302,-0.413 0.703,-0.33 z"
           id="path4875"
           inkscape:connector-curvature="0"
           style="fill:#000000" />
      </g>
      <g
         id="g4877"
         style="fill:#000000">
        <path
           d="m 68.82,1207.222 c -0.496,0 -0.993,0 -1.487,0 0.038,0.394 0.146,0.59 0.413,0.619 0.313,0.035 0.635,-0.426 1.074,-0.247 -0.337,1.005 -1.897,0.826 -2.066,-0.166 -0.137,-0.797 0.346,-1.699 1.28,-1.528 0.492,0.09 0.834,0.564 0.786,1.322 z m -1.446,-0.372 c 0.275,0 0.551,0 0.826,0 0.136,-0.668 -0.956,-0.645 -0.826,0 z"
           id="path4879"
           inkscape:connector-curvature="0"
           style="fill:#000000" />
      </g>
      <g
         id="g4881"
         style="fill:#000000">
        <path
           d="m 71.093,1206.643 c -0.166,0 -0.331,0 -0.497,0 -0.092,-0.241 -0.648,-0.455 -0.825,-0.124 0.261,0.445 1.031,0.237 1.281,0.621 0.767,1.181 -1.944,1.714 -1.943,0.412 0.644,-0.147 1.055,0.687 1.447,0.042 -0.31,-0.434 -1.213,-0.236 -1.364,-0.744 -0.359,-1.2 1.923,-1.316 1.901,-0.207 z"
           id="path4883"
           inkscape:connector-curvature="0"
           style="fill:#000000" />
      </g>
      <g
         id="g4885"
         style="fill:#000000">
        <path
           d="m 77.289,1208.172 c -0.192,0 -0.385,0 -0.577,0 -0.051,-0.57 0.116,-1.356 -0.124,-1.736 -0.965,-0.312 -0.658,0.991 -0.702,1.736 -0.194,0 -0.388,0 -0.579,0 0,-0.744 0,-1.487 0,-2.23 0.191,0 0.385,0 0.579,0 0,0.082 0,0.164 0,0.248 0.285,-0.352 1.233,-0.482 1.403,0.207 0.127,0.516 -0.093,1.125 0,1.775 z"
           id="path4887"
           inkscape:connector-curvature="0"
           style="fill:#000000" />
      </g>
      <g
         id="g4889"
         style="fill:#000000">
        <path
           d="m 84.808,1207.222 c -0.495,0 -0.991,0 -1.486,0 0.037,0.394 0.146,0.59 0.413,0.619 0.313,0.035 0.634,-0.426 1.073,-0.247 -0.336,1.005 -1.896,0.826 -2.064,-0.166 -0.137,-0.796 0.345,-1.699 1.279,-1.528 0.493,0.09 0.834,0.564 0.785,1.322 z m -1.445,-0.372 c 0.275,0 0.551,0 0.825,0 0.137,-0.668 -0.956,-0.645 -0.825,0 z"
           id="path4891"
           inkscape:connector-curvature="0"
           style="fill:#000000" />
      </g>
      <g
         id="g4893"
         style="fill:#000000">
        <path
           d="m 96.748,1205.899 c 0,0.18 0,0.358 0,0.536 -0.99,-0.178 -0.638,0.988 -0.701,1.736 -0.193,0 -0.388,0 -0.58,0 0,-0.744 0,-1.487 0,-2.23 0.192,0 0.387,0 0.58,0 0,0.096 0,0.192 0,0.288 0.137,-0.041 0.301,-0.413 0.701,-0.33 z"
           id="path4895"
           inkscape:connector-curvature="0"
           style="fill:#000000" />
      </g>
      <g
         id="g4897"
         style="fill:#000000">
        <path
           d="m 99.021,1207.222 c -0.497,0 -0.992,0 -1.488,0 0.039,0.394 0.146,0.59 0.413,0.619 0.313,0.035 0.634,-0.426 1.075,-0.247 -0.338,1.005 -1.897,0.827 -2.065,-0.166 -0.138,-0.796 0.343,-1.699 1.279,-1.528 0.493,0.09 0.833,0.564 0.786,1.322 z m -1.447,-0.372 c 0.276,0 0.552,0 0.827,0 0.136,-0.668 -0.957,-0.645 -0.827,0 z"
           id="path4899"
           inkscape:connector-curvature="0"
           style="fill:#000000" />
      </g>
      <g
         id="g4901"
         style="fill:#000000">
        <path
           d="m 101.335,1205.941 c 0.361,-0.071 0.715,-0.042 0.949,0.123 0.79,0.557 0.472,2.219 -0.661,2.231 -1.251,0.014 -1.625,-2.091 -0.288,-2.354 z m 0.33,1.859 c 0.635,-0.064 0.599,-1.69 -0.249,-1.364 -0.51,0.2 -0.418,1.432 0.249,1.364 z"
           id="path4903"
           inkscape:connector-curvature="0"
           style="fill:#000000" />
      </g>
      <g
         id="g4905"
         style="fill:#000000">
        <path
           d="m 110.3,1207.222 c -0.496,0 -0.991,0 -1.488,0 0.039,0.394 0.147,0.59 0.414,0.619 0.313,0.035 0.634,-0.426 1.074,-0.247 -0.337,1.005 -1.896,0.826 -2.065,-0.166 -0.137,-0.796 0.344,-1.699 1.28,-1.528 0.491,0.09 0.834,0.564 0.785,1.322 z m -1.446,-0.372 c 0.275,0 0.551,0 0.827,0 0.135,-0.668 -0.958,-0.645 -0.827,0 z"
           id="path4907"
           inkscape:connector-curvature="0"
           style="fill:#000000" />
      </g>
      <g
         id="g4909"
         style="fill:#000000">
        <path
           d="m 112.654,1206.768 c -0.179,0 -0.357,0 -0.537,0 -0.072,-0.135 -0.115,-0.298 -0.247,-0.371 -1.347,-0.163 -0.328,2.342 0.247,1.031 0.18,0 0.358,0 0.537,0 -0.004,0.756 -0.995,1.106 -1.611,0.702 -1.023,-0.669 -0.179,-2.778 1.157,-2.147 0.23,0.108 0.397,0.321 0.454,0.785 z"
           id="path4911"
           inkscape:connector-curvature="0"
           style="fill:#000000" />
      </g>
      <g
         id="g4913"
         style="fill:#000000">
        <path
           d="m 117.53,1208.172 c -0.194,0 -0.387,0 -0.579,0 -0.048,-0.57 0.118,-1.356 -0.123,-1.736 -0.964,-0.312 -0.66,0.991 -0.702,1.736 -0.193,0 -0.387,0 -0.579,0 0,-0.744 0,-1.487 0,-2.23 0.192,0 0.386,0 0.579,0 0,0.082 0,0.164 0,0.248 0.285,-0.352 1.233,-0.482 1.404,0.207 0.126,0.516 -0.093,1.125 0,1.775 z"
           id="path4915"
           inkscape:connector-curvature="0"
           style="fill:#000000" />
      </g>
      <g
         id="g4917"
         style="fill:#000000">
        <path
           d="m 118.77,1205.941 c 0.361,-0.071 0.714,-0.042 0.949,0.123 0.789,0.556 0.473,2.219 -0.661,2.231 -1.251,0.014 -1.624,-2.091 -0.288,-2.354 z m 0.33,1.859 c 0.636,-0.064 0.599,-1.69 -0.247,-1.364 -0.512,0.2 -0.421,1.432 0.247,1.364 z"
           id="path4919"
           inkscape:connector-curvature="0"
           style="fill:#000000" />
      </g>
      <g
         id="g4921"
         style="fill:#000000">
        <path
           d="m 122.404,1205.941 c 0.362,-0.071 0.716,-0.042 0.95,0.123 0.79,0.557 0.472,2.219 -0.661,2.231 -1.251,0.014 -1.625,-2.091 -0.289,-2.354 z m 0.331,1.859 c 0.636,-0.064 0.599,-1.69 -0.249,-1.364 -0.509,0.2 -0.417,1.432 0.249,1.364 z"
           id="path4923"
           inkscape:connector-curvature="0"
           style="fill:#000000" />
      </g>
      <g
         id="g4925"
         style="fill:#000000">
        <path
           d="m 125.628,1206.229 c 0,-0.096 0,-0.192 0,-0.288 0.191,0 0.385,0 0.578,0 -0.182,0.939 0.264,1.912 -0.042,2.685 -0.264,0.666 -1.921,0.745 -2.024,-0.166 0.179,0 0.357,0 0.537,0 0.244,0.454 1.156,0.269 0.951,-0.453 -0.194,0.077 -0.278,0.264 -0.537,0.289 -1.371,0.136 -1.296,-2.739 0.124,-2.396 0.175,0.041 0.223,0.223 0.413,0.329 z m -0.662,1.529 c 0.913,0.305 0.837,-1.596 0.042,-1.322 -0.389,0.135 -0.474,1.178 -0.042,1.322 z"
           id="path4927"
           inkscape:connector-curvature="0"
           style="fill:#000000" />
      </g>
      <g
         id="g4929"
         style="fill:#000000">
        <path
           d="m 26.597,1205.941 c 0.192,0 0.386,0 0.579,0 0.061,0.599 -0.151,1.473 0.164,1.816 1.018,0.191 0.559,-1.095 0.662,-1.816 0.192,0 0.385,0 0.577,0 0,0.743 0,1.486 0,2.23 -0.19,-0.057 -0.639,0.144 -0.577,-0.165 -0.165,0.063 -0.335,0.275 -0.621,0.289 -1.035,0.049 -0.758,-1.27 -0.784,-2.354 z"
           id="path4931"
           inkscape:connector-curvature="0"
           style="fill:#000000" />
      </g>
      <g
         id="g4933"
         style="fill:#000000">
        <path
           d="m 46.015,1205.941 c 0,0.743 0,1.486 0,2.23 -0.192,0 -0.386,0 -0.579,0 0,-0.744 0,-1.487 0,-2.23 0.193,0 0.386,0 0.579,0 z"
           id="path4935"
           inkscape:connector-curvature="0"
           style="fill:#000000" />
      </g>
      <g
         id="g4937"
         style="fill:#000000">
        <path
           d="m 74.728,1205.941 c 0,0.743 0,1.486 0,2.23 -0.193,0 -0.386,0 -0.577,0 0,-0.744 0,-1.487 0,-2.23 0.191,0 0.383,0 0.577,0 z"
           id="path4939"
           inkscape:connector-curvature="0"
           style="fill:#000000" />
      </g>
      <g
         id="g4941"
         style="fill:#000000">
        <path
           d="m 89.022,1205.941 c 0.193,0 0.386,0 0.579,0 0.062,0.599 -0.15,1.473 0.164,1.816 1.018,0.191 0.559,-1.095 0.662,-1.816 0.192,0 0.386,0 0.578,0 0,0.743 0,1.486 0,2.23 -0.191,-0.057 -0.64,0.144 -0.578,-0.165 -0.165,0.063 -0.334,0.275 -0.62,0.289 -1.036,0.049 -0.759,-1.27 -0.785,-2.354 z"
           id="path4943"
           inkscape:connector-curvature="0"
           style="fill:#000000" />
      </g>
      <g
         id="g4945"
         style="fill:#000000">
        <path
           d="m 92.947,1205.941 c 0.193,0 0.387,0 0.578,0 0.063,0.599 -0.149,1.473 0.167,1.816 1.018,0.191 0.558,-1.095 0.659,-1.816 0.193,0 0.386,0 0.58,0 0,0.743 0,1.486 0,2.23 -0.191,-0.057 -0.641,0.144 -0.58,-0.165 -0.165,0.063 -0.334,0.275 -0.62,0.289 -1.034,0.049 -0.757,-1.27 -0.784,-2.354 z"
           id="path4947"
           inkscape:connector-curvature="0"
           style="fill:#000000" />
      </g>
      <g
         id="g4949"
         style="fill:#000000">
        <path
           d="m 126.495,1205.941 c 0.22,0 0.44,0 0.66,0 0.127,0.548 0.307,1.042 0.455,1.568 0.188,-0.485 0.311,-1.039 0.455,-1.568 0.206,0 0.413,0 0.619,0 -0.386,0.665 -0.554,2.221 -0.99,2.892 -0.137,0.206 -0.487,0.345 -0.869,0.247 0,-0.124 0,-0.247 0,-0.371 0.756,-0.055 0.408,-0.748 0.124,-1.528 -0.19,-0.526 -0.373,-0.9 -0.454,-1.24 z"
           id="path4951"
           inkscape:connector-curvature="0"
           style="fill:#000000" />
      </g>
      <ellipse
         style="fill:#000000"
         id="path17286"
         cx="78.235085"
         cy="1152.3671"
         rx="2.4061196"
         ry="2.4852684" />
      <ellipse
         style="fill:#000000"
         id="path17292"
         cx="78.209312"
         cy="1177.4424"
         rx="3.9205685"
         ry="20.554981" />
      <g
         style="fill:#000000"
         id="g17307"
         transform="matrix(0.73051983,0,0,0.70705597,20.945444,337.72045)">
        <path
           sodipodi:nodetypes="ccc"
           style="fill:#000000"
           inkscape:connector-curvature="0"
           id="path17309"
           d="m 66.712097,1141.7607 c -7.368746,8.18 -7.68461,13.3638 0,22.1781 -10.585676,-2.6671 -9.921265,-19.5496 0,-22.1781 z" />
        <path
           d="m 88.738631,1141.7607 c 7.368746,8.18 7.68461,13.3638 0,22.1781 10.585676,-2.6671 9.921265,-19.5496 0,-22.1781 z"
           id="path17311"
           inkscape:connector-curvature="0"
           style="fill:#000000"
           sodipodi:nodetypes="ccc" />
      </g>
      <g
         transform="matrix(0.46103966,0,0,0.48987333,41.890888,588.09941)"
         id="g17313"
         style="fill:#000000">
        <path
           d="m 66.712097,1141.7607 c -7.368746,8.18 -7.68461,13.3638 0,22.1781 -10.585676,-2.6671 -9.921265,-19.5496 0,-22.1781 z"
           id="path17315"
           inkscape:connector-curvature="0"
           style="fill:#000000"
           sodipodi:nodetypes="ccc" />
        <path
           sodipodi:nodetypes="ccc"
           style="fill:#000000"
           inkscape:connector-curvature="0"
           id="path17317"
           d="m 88.738631,1141.7607 c 7.368746,8.18 7.68461,13.3638 0,22.1781 10.585676,-2.6671 9.921265,-19.5496 0,-22.1781 z" />
      </g>
    </g>
  </g>
</svg>
